<?xml version="1.0" standalone="no"?>
<!DOCTYPE svg PUBLIC "-//W3C//DTD SVG 20010904//EN"
 "http://www.w3.org/TR/2001/REC-SVG-20010904/DTD/svg10.dtd">
<svg version="1.0" xmlns="http://www.w3.org/2000/svg"
 width="300.000000pt" height="200.000000pt" viewBox="0 0 300.000000 200.000000"
 preserveAspectRatio="xMidYMid meet">

<g transform="translate(0.000000,200.000000) scale(0.100000,-0.100000)"
fill="#000000" stroke="none">
<path d="M845 1934 c105 -36 207 -68 227 -71 21 -3 36 -9 33 -13 -3 -4 10 -13
28 -21 17 -7 61 -26 97 -42 43 -19 73 -27 92 -23 22 4 31 0 44 -19 18 -28 36
-32 54 -11 17 22 38 8 42 -27 3 -27 12 -36 68 -68 36 -20 68 -35 71 -33 4 2
12 -3 19 -11 7 -8 19 -15 26 -15 8 0 14 -4 14 -9 0 -5 21 -21 47 -36 41 -22
51 -24 75 -14 37 15 53 7 56 -27 2 -29 33 -64 58 -64 7 0 25 -16 40 -36 22
-28 32 -34 50 -30 17 5 22 3 18 -7 -3 -9 18 -31 53 -57 31 -24 64 -50 73 -57
8 -7 18 -12 22 -11 3 2 16 -9 28 -24 12 -16 26 -28 31 -28 5 0 30 -21 57 -47
95 -96 182 -168 200 -167 14 1 18 -4 15 -17 -4 -13 0 -19 11 -19 9 0 16 -6 16
-12 1 -19 168 -188 186 -188 10 0 14 -5 10 -15 -6 -16 46 -79 67 -81 7 0 18
-2 25 -2 8 -1 10 -10 7 -25 -5 -17 4 -34 33 -67 21 -25 64 -80 96 -122 31 -43
59 -78 61 -78 3 0 5 374 5 830 l0 830 -1172 0 -1173 0 190 -66z m625 20 c0
-16 -16 -19 -25 -4 -8 13 4 32 16 25 5 -4 9 -13 9 -21z m-47 -49 c8 -18 -11
-31 -25 -17 -11 11 -3 32 12 32 4 0 10 -7 13 -15z m177 0 c0 -8 -7 -15 -15
-15 -9 0 -12 6 -9 15 4 8 10 15 15 15 5 0 9 -7 9 -15z m-344 -16 c9 -16 -18
-30 -33 -17 -7 6 -10 14 -7 19 7 13 31 11 40 -2z m1067 -614 c0 -6 -7 -11 -16
-13 -12 -3 -15 1 -11 13 7 17 25 17 27 0z m37 -101 c0 -14 -21 -19 -33 -7 -9
9 13 34 24 27 5 -3 9 -12 9 -20z m210 -48 c0 -8 -4 -17 -9 -21 -12 -7 -24 12
-16 25 9 15 25 12 25 -4z m200 -241 c0 -8 -4 -15 -10 -15 -5 0 -10 7 -10 15 0
8 5 15 10 15 6 0 10 -7 10 -15z m150 -131 c0 -9 -5 -14 -12 -12 -18 6 -21 28
-4 28 9 0 16 -7 16 -16z"/>
<path d="M7 1984 c-4 -4 -7 -452 -7 -996 l0 -988 353 0 353 0 -1 27 c0 14 5
28 11 30 17 6 26 -27 13 -43 -10 -12 12 -14 135 -14 137 0 146 1 146 19 0 10
7 22 16 25 20 8 47 -13 40 -31 -4 -11 89 -13 545 -13 583 0 570 -1 582 46 5
18 5 17 12 -3 4 -13 11 -23 14 -23 14 0 51 46 51 63 0 11 8 17 23 17 13 0 29
6 37 13 8 6 7 3 -3 -9 -9 -11 -17 -33 -17 -49 0 -26 -1 -27 -13 -11 -11 16
-14 15 -39 -11 l-27 -28 34 0 c18 0 31 3 28 8 -2 4 3 7 12 7 9 0 13 -4 10 -10
-4 -7 112 -10 340 -10 l346 0 -2 118 c-2 127 -5 142 -24 142 -7 0 -27 16 -44
35 -17 19 -33 35 -37 35 -4 0 -31 25 -61 57 -37 38 -53 62 -50 75 3 10 1 18
-4 18 -5 0 -9 5 -9 11 0 6 -7 17 -15 25 -18 18 -48 5 -66 -27 -6 -11 -13 -18
-16 -15 -3 3 6 19 21 36 20 25 24 36 16 50 -7 13 -6 20 3 24 16 8 -109 -3
-130 -11 -10 -4 -14 -2 -10 4 4 6 25 13 48 16 22 3 43 8 47 11 3 4 -19 31 -49
61 -53 54 -98 71 -114 44 -4 -6 -33 -8 -78 -5 -58 5 -66 4 -40 -4 29 -9 31
-13 21 -30 -7 -10 -19 -21 -28 -25 -8 -3 -26 -12 -40 -20 -14 -8 -26 -10 -28
-5 -4 11 -26 -9 -34 -30 -8 -23 10 -50 35 -50 21 -1 21 -1 3 -15 -17 -13 -17
-15 7 -39 16 -16 21 -26 13 -26 -8 0 -21 11 -30 25 -11 16 -22 22 -33 18 -11
-4 -14 -3 -9 6 6 8 -1 10 -26 6 -24 -4 -29 -3 -18 5 8 5 23 10 33 10 9 0 17 5
17 11 0 6 -7 8 -17 4 -14 -5 -15 -3 -6 5 14 15 -18 74 -54 97 -13 9 -22 22
-19 29 4 10 -6 14 -37 15 l-42 1 40 12 40 12 -25 17 c-13 9 -30 17 -37 17 -15
0 -17 16 -3 25 6 4 4 16 -6 31 -14 21 -19 22 -33 12 -14 -11 -14 -11 -4 3 11
13 5 27 -35 82 -47 66 -67 83 -56 50 5 -14 4 -15 -4 -4 -6 8 -8 19 -6 26 6 15
-32 49 -45 41 -9 -6 -27 30 -23 45 1 4 -34 44 -77 90 l-77 83 -40 -19 c-21
-10 -56 -29 -76 -41 -35 -22 -37 -27 -34 -66 4 -55 15 -80 32 -74 9 3 11 0 7
-11 -4 -11 -3 -14 6 -9 7 5 10 2 9 -6 -2 -7 3 -12 10 -10 8 1 11 -2 7 -8 -4
-6 -1 -19 5 -28 7 -9 -4 1 -25 23 -23 26 -44 39 -58 38 -15 -1 -17 0 -4 3 9 3
17 10 17 16 0 5 -6 8 -12 5 -7 -2 -24 0 -37 4 -18 7 -21 12 -12 23 18 22 -11
41 -41 26 -22 -11 -22 -10 2 9 14 11 28 21 31 21 4 0 9 7 12 14 4 10 1 13 -9
9 -7 -3 -14 -9 -14 -15 0 -5 -15 2 -33 16 -25 19 -36 23 -45 14 -9 -9 -13 -7
-18 5 -3 9 -10 14 -15 11 -5 -3 -7 -10 -4 -15 3 -5 0 -6 -8 -3 -9 3 -26 -9
-43 -28 -16 -18 -41 -40 -56 -47 -14 -7 -44 -32 -65 -54 -21 -22 -32 -36 -24
-32 10 6 12 2 6 -14 -4 -13 -2 -21 5 -21 6 0 4 -10 -6 -25 -9 -14 -20 -22 -25
-19 -5 3 -9 0 -9 -6 0 -6 -5 -8 -12 -4 -7 4 -8 3 -4 -4 4 -7 2 -12 -5 -12 -7
0 -9 -3 -6 -7 4 -3 34 13 68 36 34 23 64 40 66 37 3 -3 -8 -13 -26 -23 -17
-10 -31 -24 -31 -31 0 -7 5 -10 12 -6 7 5 8 3 3 -5 -5 -9 -10 -10 -18 -2 -16
16 -67 -25 -68 -57 -2 -24 -2 -24 -6 -4 -6 29 -12 28 -51 -7 -36 -33 -39 -30
-17 23 30 71 3 68 -83 -9 -73 -66 -65 -50 16 30 40 40 55 59 37 49 -27 -17
-29 -17 -16 -1 12 15 11 17 -3 17 -10 0 -15 4 -11 9 10 17 -18 25 -29 9 -10
-14 -16 -14 -41 -3 -26 12 -27 13 -8 14 16 1 21 6 17 16 -5 12 0 14 25 9 37
-8 39 1 9 27 -20 16 -20 18 -5 19 9 0 17 -4 17 -10 0 -5 4 -10 10 -10 5 0 7 7
4 15 -4 9 3 16 21 21 17 4 24 11 21 20 -3 8 -1 14 3 14 5 0 12 -6 14 -12 3 -8
6 -6 6 4 1 9 -6 21 -15 26 -11 6 -16 26 -18 70 -2 62 6 73 19 25 7 -29 30 -56
55 -66 10 -3 6 -6 -9 -6 -19 -1 -22 -5 -17 -23 3 -13 6 -26 6 -30 0 -5 6 -8
13 -8 6 0 27 41 46 90 18 50 36 89 38 86 4 -4 -27 -101 -53 -170 -3 -9 -2 -16
4 -16 6 0 18 20 28 45 20 54 31 53 13 -2 -7 -21 -13 -48 -15 -61 l-2 -23 36
27 c20 15 47 37 59 50 19 19 20 23 6 28 -14 6 -14 9 3 25 13 12 23 15 31 9 16
-13 45 -2 73 27 23 24 23 25 5 45 -10 11 -23 17 -29 13 -8 -4 -8 -2 0 6 10 10
17 10 35 -1 30 -19 36 -18 82 12 25 17 36 31 33 43 -2 9 0 17 5 17 5 0 9 -5 9
-12 0 -6 8 -4 19 6 26 23 24 62 -5 81 -34 22 -36 20 -30 -27 4 -30 3 -38 -4
-28 -5 8 -10 29 -10 47 0 22 -8 38 -27 54 -25 19 -26 21 -5 15 12 -4 22 -6 22
-4 -1 22 -34 106 -48 118 -33 31 -51 31 -82 0 -27 -28 -28 -30 -10 -40 10 -5
28 -10 39 -10 12 0 20 -4 18 -9 -1 -5 7 -17 18 -25 17 -14 17 -15 2 -10 -11 4
-23 0 -31 -12 -12 -16 -16 -16 -30 -5 -9 8 -14 21 -11 32 8 26 -15 35 -33 13
-14 -18 -14 -18 -9 4 5 21 -1 27 -46 47 -29 13 -47 24 -40 24 7 1 28 -7 48
-16 40 -19 42 -18 49 22 7 37 -8 54 -55 61 -21 4 -44 12 -50 20 -6 7 -16 11
-24 8 -7 -3 -25 5 -40 18 -15 13 -30 23 -33 24 -16 1 -99 26 -117 34 -22 10
-40 13 -67 11 -20 -1 -24 -27 -6 -34 10 -3 10 -8 -1 -21 -16 -19 -16 -20 29
-39 l35 -15 -39 1 c-25 1 -41 -3 -44 -12 -3 -8 0 -11 7 -7 7 4 9 1 5 -8 -4
-10 5 -20 25 -31 33 -17 37 -25 20 -42 -8 -8 -7 -24 5 -59 21 -63 20 -68 -7
-17 -12 23 -26 42 -31 42 -5 -1 -13 5 -17 13 -6 8 -9 9 -9 1 0 -14 -36 -5 -51
13 -7 8 -9 18 -5 21 4 4 11 1 16 -7 5 -8 11 -12 15 -9 3 3 -6 18 -20 33 -14
15 -25 31 -25 35 0 4 -12 7 -27 6 -16 -1 -20 0 -10 2 27 7 21 40 -10 51 l-28
10 26 1 c17 1 28 8 31 19 7 26 -9 62 -27 62 -8 0 -15 9 -15 19 0 11 -5 23 -12
27 -7 5 -8 3 -3 -6 4 -7 4 -11 -1 -8 -5 2 -24 11 -41 18 -31 14 -53 40 -33 40
17 0 11 18 -7 24 -45 14 -217 35 -230 27 -13 -7 -13 -9 1 -14 9 -4 16 -15 16
-26 0 -11 8 -25 18 -30 9 -6 13 -11 8 -11 -5 0 -18 7 -28 16 -15 14 -20 15
-33 4 -14 -11 -17 -10 -22 8 -4 16 -13 22 -32 22 -15 0 -37 7 -49 16 -17 12
-52 16 -140 18 -94 2 -124 6 -152 22 l-35 19 40 3 c39 3 76 22 43 22 -8 0 -28
3 -44 6 -16 3 -32 2 -37 -2z m229 -105 c3 -5 14 -9 25 -9 17 0 18 -3 7 -21
-11 -17 -10 -22 6 -34 10 -8 24 -16 30 -18 16 -6 -24 -47 -61 -63 -50 -21 -86
-17 -114 12 -29 31 -32 93 -5 123 25 28 97 34 112 10z m104 -83 c0 -3 -4 -8
-10 -11 -5 -3 -10 -1 -10 4 0 6 5 11 10 11 6 0 10 -2 10 -4z m-7 -56 c-7 -25
-23 -37 -23 -16 0 23 11 46 20 41 5 -3 6 -14 3 -25z m257 -51 l35 -2 -37 -10
c-39 -11 -45 -21 -28 -47 5 -9 5 -19 -2 -27 -13 -17 -31 -17 -23 0 4 6 -1 3
-9 -7 -9 -11 -16 -14 -16 -7 0 20 -23 38 -45 34 -20 -4 -20 -4 0 9 19 12 18
13 -15 18 -19 3 -47 3 -63 -1 -15 -4 -25 -4 -23 0 3 4 31 13 63 20 32 7 65 17
73 22 8 4 24 6 35 4 11 -3 36 -5 55 -6z m586 -33 c3 -8 7 -21 8 -30 1 -8 5
-19 9 -23 9 -8 -52 -35 -64 -27 -5 3 -9 11 -9 18 0 7 -16 20 -36 30 -41 19
-41 32 0 16 40 -15 56 -12 56 10 0 23 28 27 36 6z m-139 -12 c-3 -3 -12 -4
-19 -1 -8 3 -5 6 6 6 11 1 17 -2 13 -5z m-846 -44 c15 0 11 -7 -17 -36 -47
-46 -85 -45 -95 4 -10 49 11 66 58 47 19 -8 44 -15 54 -15z m532 -38 c-2 -39
-3 -42 -18 -42 -8 0 -15 6 -15 14 0 8 -6 17 -12 20 -9 3 -7 9 7 21 25 20 40
15 38 -13z m37 18 c0 -5 -2 -10 -4 -10 -3 0 -8 5 -11 10 -3 6 -1 10 4 10 6 0
11 -4 11 -10z m-85 -60 c3 -6 -1 -7 -9 -4 -18 7 -21 14 -7 14 6 0 13 -4 16
-10z m630 -82 c-4 -23 -13 -56 -21 -72 -14 -30 -13 -12 1 29 7 20 6 20 -9 1
-9 -11 -16 -17 -16 -13 0 9 43 97 47 97 2 0 1 -19 -2 -42z m-327 -4 c33 -16
44 -31 16 -20 -9 4 -23 1 -30 -5 -10 -8 -21 -8 -43 2 -29 13 -29 13 -8 25 29
16 30 16 65 -2z m-329 -26 c-9 -5 4 -7 36 -3 l50 5 -39 -15 c-21 -8 -44 -22
-50 -31 -8 -11 -20 -13 -38 -9 -21 6 -25 11 -19 26 7 22 51 49 65 41 4 -2 2
-9 -5 -14z m178 16 c-3 -3 -12 -4 -19 -1 -8 3 -5 6 6 6 11 1 17 -2 13 -5z
m250 -20 c-3 -3 -12 -4 -19 -1 -8 3 -5 6 6 6 11 1 17 -2 13 -5z m-47 -60 c0
-7 2 -21 5 -31 3 -10 -3 0 -14 22 -23 48 -26 68 -6 41 8 -11 15 -25 15 -32z
m140 30 l25 -15 -25 7 c-14 3 -32 10 -40 15 -13 7 -13 8 0 8 8 0 26 -6 40 -15z
m69 -63 c-12 -28 -24 -50 -26 -48 -2 2 4 20 12 40 9 22 11 37 5 37 -5 0 -10 4
-10 10 0 5 7 7 15 4 8 -4 15 -1 15 7 0 7 2 10 5 7 3 -3 -4 -28 -16 -57z m-679
39 c-8 -5 -19 -10 -25 -10 -5 0 -3 5 5 10 8 5 20 10 25 10 6 0 3 -5 -5 -10z
m380 0 c0 -5 -2 -10 -4 -10 -3 0 -8 5 -11 10 -3 6 -1 10 4 10 6 0 11 -4 11
-10z m360 -41 c21 -17 22 -19 3 -10 -12 6 -29 8 -37 5 -12 -5 -15 -2 -10 10 8
21 14 20 44 -5z m-253 -41 c-3 -8 -6 -5 -6 6 -1 11 2 17 5 13 3 -3 4 -12 1
-19z m308 4 c-3 -3 -11 0 -18 7 -9 10 -8 11 6 5 10 -3 15 -9 12 -12z m66 -19
c13 -16 12 -17 -3 -4 -17 13 -22 21 -14 21 2 0 10 -8 17 -17z m-177 -20 c-4
-16 -13 -39 -21 -53 -9 -15 -12 -17 -8 -5 4 11 11 35 17 53 11 39 21 43 12 5z
m-967 -66 c-8 -6 -17 -23 -19 -36 -5 -36 -33 -50 -55 -28 -23 22 -7 51 30 55
14 2 31 10 38 18 6 8 14 12 17 9 3 -3 -2 -11 -11 -18z m1162 -103 c-7 -8 -26
-22 -43 -31 -36 -18 -30 -10 16 23 39 28 45 29 27 8z m256 -44 c3 -5 -1 -10
-9 -10 -9 0 -16 5 -16 10 0 6 4 10 9 10 6 0 13 -4 16 -10z m58 3 c-7 -2 -19
-2 -25 0 -7 3 -2 5 12 5 14 0 19 -2 13 -5z m-198 -23 c-3 -5 -14 -10 -23 -9
-14 0 -13 2 3 9 27 11 27 11 20 0z m-216 -3 c-2 -1 -13 -9 -24 -17 -19 -14
-19 -14 -6 3 7 9 18 17 24 17 6 0 8 -1 6 -3z m221 -37 c12 -8 10 -9 -7 -7 -12
2 -26 6 -29 10 -11 11 19 8 36 -3z m0 -37 c0 -1 -8 -7 -18 -12 -13 -7 -19 -6
-19 2 0 7 9 13 19 13 10 0 18 -1 18 -3z m423 -13 c3 -11 1 -20 -4 -20 -5 0 -9
9 -9 20 0 11 2 20 4 20 2 0 6 -9 9 -20z m-262 -17 c13 -16 12 -17 -3 -4 -17
13 -22 21 -14 21 2 0 10 -8 17 -17z m57 -49 c14 8 31 -16 28 -38 -6 -43 -55
-39 -61 5 -1 13 -6 33 -11 44 -7 20 -7 20 14 2 11 -11 25 -16 30 -13z m207 16
c3 -5 1 -10 -4 -10 -6 0 -11 5 -11 10 0 6 2 10 4 10 3 0 8 -4 11 -10z m-925
-54 c0 -3 -15 -14 -32 -26 l-33 -22 28 26 c27 25 37 31 37 22z m140 -42 c0 -7
6 -15 13 -17 7 -3 5 -6 -5 -6 -13 -1 -18 -10 -18 -33 -1 -30 -2 -31 -12 -13
-6 11 -17 24 -25 28 -7 4 -13 13 -13 19 0 6 -8 17 -17 25 -10 8 -13 12 -6 8 7
-3 20 2 30 12 16 16 20 17 36 3 9 -8 17 -20 17 -26z m879 14 c11 -15 10 -17
-8 -15 -12 1 -21 2 -21 3 0 6 13 34 14 32 1 -2 7 -11 15 -20z m-999 8 c0 -2
-7 -9 -15 -16 -13 -11 -14 -10 -9 4 5 14 24 23 24 12z m-780 -22 c0 -17 -22
-14 -28 4 -2 7 3 12 12 12 9 0 16 -7 16 -16z m550 -54 c0 -16 -28 -42 -42 -39
-24 6 -4 48 21 46 12 -1 21 -4 21 -7z m1177 -35 c-15 -16 -22 -11 -13 10 3 9
10 13 16 10 6 -4 5 -11 -3 -20z m53 15 c0 -5 -7 -10 -15 -10 -8 0 -15 5 -15
10 0 6 7 10 15 10 8 0 15 -4 15 -10z m-869 -60 c6 0 7 5 3 12 -4 6 -3 8 4 5
11 -7 -6 -67 -19 -67 -20 0 -29 29 -17 56 10 21 14 24 16 11 2 -9 8 -17 13
-17z m480 11 c13 -14 14 -22 5 -39 -11 -20 -13 -21 -33 -7 -19 13 -21 19 -11
40 13 30 19 31 39 6z m94 -1 c-3 -5 -13 -10 -21 -10 -8 0 -14 5 -14 10 0 6 9
10 21 10 11 0 17 -4 14 -10z m-768 -43 c-3 -8 -14 -17 -25 -19 -18 -5 -19 -3
-11 26 5 17 9 33 9 36 0 2 7 -3 16 -12 9 -9 14 -23 11 -31z m596 6 c-7 -2 -19
-2 -25 0 -7 3 -2 5 12 5 14 0 19 -2 13 -5z m145 -22 c9 -5 25 -12 35 -15 11
-3 21 -15 24 -26 3 -11 13 -20 22 -21 11 0 12 -2 3 -6 -8 -3 -10 -9 -3 -16 13
-17 -71 -16 -92 1 -10 9 -17 10 -22 3 -10 -17 -45 -33 -45 -21 0 5 7 10 16 10
10 0 14 5 10 16 -3 8 -2 12 4 9 5 -3 18 -2 27 4 16 9 16 10 2 16 -12 5 -17 30
-10 53 2 4 11 2 29 -7z m229 -13 c-3 -8 -6 -5 -6 6 -1 11 2 17 5 13 3 -3 4
-12 1 -19z m247 -8 c-6 -6 -10 -2 -11 12 -2 16 1 18 10 9 7 -7 8 -14 1 -21z
m326 16 c0 -2 -7 -7 -16 -10 -8 -3 -12 -2 -9 4 6 10 25 14 25 6z m-855 -16 c3
-5 2 -10 -4 -10 -5 0 -13 5 -16 10 -3 6 -2 10 4 10 5 0 13 -4 16 -10z m802 4
c-3 -3 -12 -4 -19 -1 -8 3 -5 6 6 6 11 1 17 -2 13 -5z m-2250 -15 c13 -13 6
-46 -13 -53 -22 -9 -46 22 -34 45 12 21 30 25 47 8z m2196 4 c-7 -2 -19 -2
-25 0 -7 3 -2 5 12 5 14 0 19 -2 13 -5z m-1123 -13 c0 -5 -4 -10 -9 -10 -5 0
-18 -3 -28 -7 -16 -6 -16 -5 -4 10 15 19 41 23 41 7z m572 -32 c-12 -12 -35
-1 -27 12 3 5 13 6 21 3 10 -4 12 -9 6 -15z m-352 -8 c0 -5 -7 -10 -15 -10 -8
0 -15 5 -15 10 0 6 7 10 15 10 8 0 15 -4 15 -10z m619 1 c9 -6 4 -10 -19 -13
-40 -6 -82 1 -74 13 7 11 75 11 93 0z m121 -21 c0 -5 -5 -10 -11 -10 -5 0 -7
5 -4 10 3 6 8 10 11 10 2 0 4 -4 4 -10z m-1268 -25 c0 -5 -5 -11 -11 -13 -6
-2 -11 4 -11 13 0 9 5 15 11 13 6 -2 11 -8 11 -13z m590 0 c0 -8 1 -20 2 -26
1 -7 -9 -15 -21 -20 -18 -6 -23 -5 -23 7 0 11 6 15 20 11 23 -6 24 -3 10 24
-7 13 -7 19 0 19 5 0 11 -7 12 -15z m302 -1 c5 -13 3 -14 -6 -7 -7 6 -20 13
-28 16 -10 4 -8 6 6 6 12 1 25 -6 28 -15z m461 6 c3 -5 1 -10 -4 -10 -6 0 -11
5 -11 10 0 6 2 10 4 10 3 0 8 -4 11 -10z m273 -17 c-21 -25 -31 -44 -21 -41
12 3 73 -35 73 -46 0 -5 -6 -3 -13 3 -8 6 -16 8 -20 5 -3 -3 -15 -1 -26 6 -12
6 -21 7 -20 3 3 -19 -2 -23 -20 -14 -16 9 -28 1 -75 -49 -37 -39 -54 -64 -50
-74 3 -9 1 -16 -6 -16 -7 0 -9 -8 -5 -22 7 -21 6 -22 -7 -5 -13 18 -15 17 -41
-4 l-28 -21 33 -30 33 -29 -31 15 c-18 9 -41 13 -53 11 -16 -3 -21 1 -21 17 0
12 -8 31 -17 42 -15 17 -15 18 -2 8 45 -34 92 -9 92 48 0 24 3 27 14 19 16
-14 66 21 112 80 l32 40 -28 16 c-26 15 -26 16 -4 11 30 -6 89 18 97 39 4 9 9
13 12 10 3 -2 -2 -13 -10 -22z m-838 7 c0 -5 -7 -10 -15 -10 -8 0 -15 5 -15
10 0 6 7 10 15 10 8 0 15 -4 15 -10z m645 -1 c12 -19 -2 -21 -32 -5 l-28 15
27 1 c15 0 30 -5 33 -11z m-1335 -19 c0 -5 -2 -10 -4 -10 -3 0 -8 5 -11 10 -3
6 -1 10 4 10 6 0 11 -4 11 -10z m880 -22 c0 -4 -11 -2 -25 4 -14 6 -25 15 -25
19 0 4 11 2 25 -4 14 -7 25 -15 25 -19z m-540 -8 c0 -5 -7 -10 -16 -10 -8 0
-12 5 -9 10 3 6 10 10 16 10 5 0 9 -4 9 -10z m-207 -14 c15 -12 16 -18 6 -40
-14 -30 -22 -32 -43 -10 -19 19 -19 19 -4 44 15 23 17 24 41 6z m1052 -87 c-9
-29 -25 -6 -25 36 l0 29 16 -22 c9 -13 13 -31 9 -43z m465 43 c0 -5 10 -14 23
-19 20 -10 19 -10 -12 -8 -38 3 -67 35 -31 35 11 0 20 -4 20 -8z m-1810 -10
c0 -13 -12 -22 -22 -16 -10 6 -1 24 13 24 5 0 9 -4 9 -8z m-620 -32 c11 -5 29
-14 40 -20 11 -5 30 -10 42 -10 21 0 20 -2 -9 -20 -18 -11 -33 -25 -33 -32 0
-20 -32 -48 -57 -48 -30 0 -63 34 -63 65 0 15 11 36 26 50 31 29 28 28 54 15z
m2555 -38 c-3 -3 -11 0 -18 7 -9 10 -8 11 6 5 10 -3 15 -9 12 -12z m-900 -12
c3 -5 1 -10 -4 -10 -6 0 -11 5 -11 10 0 6 2 10 4 10 3 0 8 -4 11 -10z m-201
-43 c-8 -21 -18 -21 -34 -2 -10 12 -10 18 0 31 11 13 15 13 27 1 8 -7 11 -21
7 -30z m1146 33 c8 -5 11 -10 5 -10 -5 0 -17 5 -25 10 -8 5 -10 10 -5 10 6 0
17 -5 25 -10z m-996 -16 c24 -23 19 -27 -9 -8 -14 9 -25 18 -25 20 0 10 20 3
34 -12z m-1114 -19 c0 -18 -5 -25 -20 -25 -20 0 -28 28 -13 43 15 16 33 6 33
-18z m1170 15 c0 -5 -2 -10 -4 -10 -3 0 -8 5 -11 10 -3 6 -1 10 4 10 6 0 11
-4 11 -10z m-480 -50 c0 -5 -7 -10 -16 -10 -8 0 -12 5 -9 10 3 6 10 10 16 10
5 0 9 -4 9 -10z m640 -20 c0 -18 -19 -11 -30 11 -11 19 -10 20 9 9 12 -6 21
-15 21 -20z m384 -79 c14 -10 23 -20 20 -24 -4 -4 -1 -15 7 -24 13 -16 12 -17
-3 -4 -10 7 -18 9 -18 4 0 -6 -11 -8 -25 -5 -14 2 -25 8 -25 13 0 5 -10 9 -22
10 -23 0 -23 0 1 10 l24 9 -24 28 c-13 15 -17 21 -9 15 8 -7 18 -13 23 -13 9
0 8 8 -7 55 -3 11 2 3 13 -18 10 -22 30 -47 45 -56z m-719 5 c14 -14 9 -60 -5
-51 -5 3 -11 1 -14 -4 -3 -5 -19 3 -35 18 l-29 26 27 12 c35 15 40 15 56 -1z
m1061 -28 c-12 -7 -22 -6 -32 3 -21 17 3 31 30 17 18 -10 18 -11 2 -20z m-459
-21 c-16 -5 -31 -6 -35 -2 -11 10 19 23 41 17 20 -5 19 -6 -6 -15z"/>
<path d="M1341 1588 c-10 -30 -9 -31 4 -14 8 11 15 26 15 33 0 22 -8 14 -19
-19z"/>
<path d="M1488 1540 c-2 -8 0 -34 6 -58 11 -50 68 -104 88 -84 7 7 -2 17 -31
34 -22 12 -41 26 -41 31 0 11 5 9 42 -12 29 -17 53 -20 112 -12 16 2 -16 31
-35 31 -11 0 -19 5 -19 11 0 5 -5 7 -10 4 -11 -7 -79 31 -96 54 -9 12 -12 12
-16 1z"/>
<path d="M1670 1430 c-9 -6 -10 -10 -3 -10 6 0 15 5 18 10 8 12 4 12 -15 0z"/>
<path d="M1695 1400 c-6 -9 33 -30 56 -30 19 0 8 21 -17 30 -31 12 -31 12 -39
0z"/>
<path d="M1658 1358 c15 -15 16 -32 2 -23 -27 17 14 -33 57 -68 20 -18 22 -18
60 2 21 10 47 26 58 34 19 14 18 15 -8 10 -20 -4 -27 -2 -25 8 2 8 -7 15 -21
17 -20 3 -23 0 -18 -17 7 -26 -4 -27 -26 -1 -9 11 -23 20 -31 20 -7 0 -19 7
-26 15 -7 8 -17 15 -23 15 -7 0 -7 -4 1 -12z"/>
<path d="M1547 1296 c-9 -7 -16 -20 -14 -27 2 -8 2 -11 0 -6 -14 23 -64 -16
-70 -53 -3 -22 12 -27 21 -7 3 6 3 2 0 -10 -3 -15 1 -25 14 -32 27 -14 46 9
40 49 -7 45 9 36 17 -10 4 -22 11 -40 16 -40 6 0 43 18 84 41 l74 40 -39 35
c-34 31 -41 34 -59 22 -17 -10 -25 -10 -41 0 -24 14 -21 15 -43 -2z"/>
<path d="M1815 1273 c-10 -3 -29 -12 -42 -20 l-23 -15 67 -69 c37 -39 70 -74
73 -80 4 -5 23 -10 43 -11 30 -1 37 -5 38 -22 2 -53 9 -68 59 -131 l54 -68 14
43 c8 23 11 45 6 49 -11 8 -16 63 -4 56 4 -3 11 3 14 12 5 13 9 14 15 5 6 -10
10 -10 19 0 17 21 26 68 13 68 -7 0 -39 18 -71 40 -55 37 -110 58 -66 25 19
-14 19 -15 -6 -15 -14 0 -32 7 -39 16 -12 14 -14 14 -20 -3 -5 -14 -9 -8 -18
26 -8 28 -19 45 -32 48 -10 3 -19 9 -19 14 0 5 -11 9 -25 9 -29 0 -34 16 -7
23 14 4 13 5 -3 5 -11 0 -29 -3 -40 -5z"/>
<path d="M1962 1220 c0 -14 2 -19 5 -12 2 6 2 18 0 25 -3 6 -5 1 -5 -13z"/>
<path d="M2174 1036 c-3 -13 -1 -33 5 -44 9 -16 7 -24 -5 -36 -8 -9 -11 -16
-5 -16 6 0 11 -7 11 -15 0 -8 9 -19 20 -25 24 -13 26 0 9 81 -6 30 -11 60 -12
67 -1 21 -16 13 -23 -12z"/>
<path d="M2225 998 c8 -37 13 -71 14 -107 1 -13 4 -21 9 -17 7 8 8 10 11 44 2
15 3 14 10 -3 5 -11 4 -30 0 -43 -13 -34 -12 -35 21 -30 17 3 30 1 30 -3 0 -5
6 -6 14 -3 7 3 16 -2 19 -10 3 -8 15 -20 27 -26 20 -11 20 -10 3 32 -9 24 -35
63 -57 87 -23 24 -51 55 -63 68 -13 13 -23 28 -23 33 0 6 -5 10 -11 10 -8 0
-9 -11 -4 -32z m122 -121 c4 -7 0 -8 -11 -4 -10 4 -24 7 -32 7 -9 0 -13 4 -10
9 7 11 44 3 53 -12z"/>
<path d="M2106 886 c-11 -27 -13 -43 -6 -50 5 -5 10 -7 10 -3 0 3 11 2 25 -3
14 -5 27 -5 30 -1 7 13 -5 42 -16 35 -12 -7 -11 -1 1 32 9 23 9 25 -4 15 -11
-9 -15 -9 -19 1 -2 7 -12 -5 -21 -26z"/>
<path d="M1112 875 c-11 -24 -10 -25 8 -15 11 6 17 16 14 25 -8 20 -9 19 -22
-10z"/>
<path d="M2415 880 c3 -5 8 -10 11 -10 2 0 4 5 4 10 0 6 -5 10 -11 10 -5 0 -7
-4 -4 -10z"/>
<path d="M2445 840 c3 -5 8 -10 11 -10 2 0 4 5 4 10 0 6 -5 10 -11 10 -5 0 -7
-4 -4 -10z"/>
<path d="M2160 795 c0 -9 6 -12 15 -9 8 4 12 10 9 15 -8 14 -24 10 -24 -6z"/>
<path d="M2457 804 c-6 -6 60 -74 72 -74 23 0 17 18 -16 47 -37 34 -45 37 -56
27z"/>
<path d="M2435 770 c-3 -5 1 -10 9 -10 9 0 16 5 16 10 0 6 -4 10 -9 10 -6 0
-13 -4 -16 -10z"/>
<path d="M2370 686 c0 -2 7 -6 15 -10 8 -3 15 -1 15 4 0 6 -7 10 -15 10 -8 0
-15 -2 -15 -4z"/>
<path d="M2246 617 c3 -10 9 -15 12 -12 3 3 0 11 -7 18 -10 9 -11 8 -5 -6z"/>
</g>
</svg>
